# xmcd
# 
# Track frame offsets:
#     150
#     11738
#     31144
#     47936
#     61885
#     74336
#     85060
#     99396
#     135016
# 
# Disc length: 1980
# 
# Revision: 3
# Processed by: cddbd v1.5.2PL0 Copyright (c) Steve Scherf et al.
# Submitted via: fre:ac v1.0.27
# 
DISCID=6907ba09
DTITLE=Original Broadway Cast - Forever Tango - Vol 1
DYEAR=0
DGENRE=Latin
TTITLE0=El Marne (E. Arolas)
TTITLE1=Evaristo Carriego (E. Rovira)
TTITLE2=La Bordona (E. Balcarce)
TTITLE3=Oro y Plata (Charlo O. Manzi)
TTITLE4=Negracha (O. Pugliese)
TTITLE5=SVP (A. Piazzolla)
TTITLE6=A. Piazzolla)
TTITLE7=Preludio a mi Viejo (L. Adrover)
TTITLE8=Vampitango (L. Adrover)
EXTD=
EXTT0=
EXTT1=
EXTT2=
EXTT3=
EXTT4=
EXTT5=
EXTT6=
EXTT7=
EXTT8=
PLAYORDER=
